<svg xmlns="http://www.w3.org/2000/svg" viewBox="0 0 24 24" width="24" height="24" color="currentColor" fill="none" stroke="currentColor" stroke-width="1.5">
    <path d="M15.9351 11.3742C15.6807 10.1626 14.327 9.29233 11.6198 7.55186C8.67531 5.6589 7.20298 4.71243 6.01054 5.07707C5.60657 5.20057 5.23463 5.41773 4.92231 5.71235C4 6.58224 4 8.38816 4 12C4 15.6118 4 17.4178 4.92231 18.2876C5.23463 18.5823 5.60657 18.7994 6.01054 18.9229C7.20298 19.2876 8.67531 18.3411 11.6198 16.4481C14.327 14.7077 15.6807 13.8374 15.9351 12.6258C16.0216 12.2135 16.0216 11.7865 15.9351 11.3742Z" stroke-linejoin="round" fill="currentColor"></path>
    <path d="M20 4L20 20" stroke-linecap="round"></path>
</svg>
